<?xml version="1.0" encoding="utf-8"?>
<!-- Generator: Adobe Illustrator 27.5.0, SVG Export Plug-In . SVG Version: 6.00 Build 0)  -->
<svg version="1.1" xmlns="http://www.w3.org/2000/svg" xmlns:xlink="http://www.w3.org/1999/xlink" x="0px" y="0px"
	 viewBox="0 0 2200 2200" style="enable-background:new 0 0 2200 2200;" xml:space="preserve">
<g id="background">
	<rect style="fill:#FFFFFF;" width="2200" height="2200"/>
</g>
<g id="Objects">
	<g>
		<g>
			<linearGradient id="SVGID_1_" gradientUnits="userSpaceOnUse" x1="430.2535" y1="1016.2758" x2="1078.8669" y2="1455.7734">
				<stop  offset="0" style="stop-color:#06C1F2"/>
				<stop  offset="0.9989" style="stop-color:#0078C2"/>
			</linearGradient>
			<path style="fill:url(#SVGID_1_);" d="M882.187,1683.035c-0.734,0.649-1.47,1.295-2.208,1.94
				c-149.201,130.287-378.314,130.286-527.543,0.029c-0.749-0.654-1.496-1.31-2.241-1.968
				c-112.338-99.313-174.036-248.553-162.979-394.3c13.666-180.23,128.596-336.723,234.853-486.327
				c84.09-118.417,167.644-247.103,194.13-385.102c26.469,137.999,110.04,266.685,194.13,385.102
				c106.239,149.603,221.187,306.097,234.853,486.327C1056.223,1434.482,994.525,1583.722,882.187,1683.035z"/>
		</g>
		<g style="opacity:0.18;">
			
				<linearGradient id="SVGID_00000084511995553019275230000001528760766583766933_" gradientUnits="userSpaceOnUse" x1="438.4107" y1="1010.5516" x2="991.3271" y2="1499.6699">
				<stop  offset="0" style="stop-color:#0078C2"/>
				<stop  offset="0.9989" style="stop-color:#004187"/>
			</linearGradient>
			<path style="fill:url(#SVGID_00000084511995553019275230000001528760766583766933_);" d="M882.188,1683.03
				c-0.73,0.65-1.47,1.3-2.21,1.94c-149.2,130.29-378.31,130.29-527.54,0.03c-0.75-0.65-1.5-1.31-2.24-1.97
				c-37.94-33.53-70.1-72.77-95.62-115.64c72.05,74.45,180,120.6,288.71,115.22c161.52-7.99,303.29-129.61,345.4-272.52
				c43.86-148.86,39.87-286.21-101.02-459.88c-129.02-159.05-171.47-241.9-171.47-532.9c26.47,138,110.04,266.68,194.13,385.1
				c106.24,149.6,221.19,306.1,234.86,486.33C1056.228,1434.48,994.528,1583.72,882.188,1683.03z"/>
		</g>
		<path style="opacity:0.45;fill:#FFFFFF;" d="M295.343,1549.463c-9.204-19.351-17.396-39.571-24.35-60.1l74.542-25.25
			c5.969,17.623,12.994,34.966,20.88,51.544L295.343,1549.463z"/>
		<path style="opacity:0.45;fill:#FFFFFF;" d="M398.194,959.144c-47.582,69.87-76.921,151.096-87.091,234.186
			c-9.904,80.688-1.772,163.753,25.315,239.618c0,0-76.059,20.226-76.059,20.226C227.065,1278.8,277.174,1089.063,398.194,959.144
			L398.194,959.144z"/>
	</g>
	
		<linearGradient id="SVGID_00000095333551058596185190000016043557115195595907_" gradientUnits="userSpaceOnUse" x1="1247.1431" y1="914.1528" x2="2029.7505" y2="1444.4442">
		<stop  offset="0" style="stop-color:#06C1F2"/>
		<stop  offset="0.9989" style="stop-color:#0078C2"/>
	</linearGradient>
	<path style="fill:url(#SVGID_00000095333551058596185190000016043557115195595907_);" d="M1583.8,552.462
		c11.341,27.171,24.739,55.02,40.272,83.759c37.095,68.631,82.108,134.23,121.248,189.348c3.323,4.679,6.655,9.365,9.991,14.059
		c100.878,141.896,205.191,288.622,217.589,452.129c4.946,65.296-6.227,133.161-32.311,196.26
		c-26.151,63.259-66.71,120.333-117.3,165.057c-0.672,0.594-1.346,1.186-2.016,1.772c-64.874,56.65-149.208,87.848-237.466,87.848
		c-88.247,0-172.58-31.19-237.464-87.826c-0.686-0.599-1.37-1.199-2.051-1.801c-50.584-44.718-91.142-101.791-117.29-165.049
		c-26.083-63.099-37.25-130.963-32.297-196.258c12.402-163.559,116.757-310.324,217.676-452.256
		c3.307-4.651,6.609-9.295,9.905-13.935c39.132-55.106,84.138-120.696,121.242-189.348
		C1559.063,607.478,1572.458,579.635,1583.8,552.462 M1583.804,417.307c-26.486,137.999-110.04,266.685-194.13,385.102
		c-106.257,149.604-221.187,306.097-234.853,486.327c-11.058,145.746,50.64,294.987,162.979,394.299
		c0.745,0.658,1.492,1.314,2.241,1.968c74.615,65.129,169.185,97.69,263.767,97.69c94.582,0,189.176-32.575,263.776-97.719
		c0.738-0.644,1.474-1.291,2.208-1.94c112.338-99.313,174.036-248.553,162.996-394.299
		c-13.666-180.23-128.614-336.723-234.853-486.327C1693.844,683.992,1610.273,555.306,1583.804,417.307L1583.804,417.307z"/>
</g>
</svg>
